<svg aria-hidden="true" style="position:absolute; width: 0; height: 0; overflow:hidden;" xmlns="http://www.w3.org/2000/svg">
<defs>
<symbol id="sun-link" viewBox="0 0 41 41">
    <path d="M41 24.5282L35.8067 19.463L40.262 13.7435L33.2339 11.9481L34.2316 4.76625L27.2479 6.71717L24.5146 0L19.4494 5.19333L13.7299 0.738L11.9344 7.76608L4.75259 6.76842L6.7035 13.7504L-0.0136642 16.4769L5.17967 21.5438L0.724336 27.2633L7.75242 29.0587L6.7445 36.2406L13.7265 34.2897L16.4598 41.0068L21.525 35.8135L27.2445 40.2688L29.04 33.2407L36.2235 34.2487L34.2726 27.2667L41 24.5282ZM24.3967 31.8775C22.149 32.642 19.7253 32.7242 17.4309 32.1136C15.1366 31.503 13.0743 30.227 11.5039 28.4464C9.93356 26.6657 8.92534 24.4601 8.60632 22.1075C8.2873 19.7548 8.67176 17.3604 9.71124 15.2258C10.7507 13.0913 12.3987 11.3122 14.4476 10.1127C16.4965 8.91313 18.8546 8.34687 21.2247 8.48522C23.5949 8.62356 25.8711 9.46033 27.7665 10.8901C29.6619 12.3198 31.0917 14.2786 31.8758 16.5196L31.9014 16.6033C32.3114 17.7632 32.5472 19.0992 32.5472 20.4915C32.5472 22.9877 31.7707 25.4221 30.3254 27.4574C28.88 29.4926 26.8373 31.0278 24.4804 31.8502L24.3967 31.8758V31.8775Z"/>
</symbol>
<symbol id="rain-link" viewBox="0 0 49 48">
    <path d="M37.8313 12.8633C37.3216 9.68573 35.6937 6.79474 33.241 4.71133C30.7883 2.62792 27.6721 1.48913 24.454 1.5002C21.2358 1.51127 18.1275 2.67148 15.6892 4.77172C13.2508 6.87195 11.6429 9.77408 11.1552 12.955C8.87902 13.3529 6.77607 14.4288 5.12169 16.0419C4.13511 16.9972 3.35044 18.1409 2.8142 19.4051C2.27797 20.6694 2.00109 22.0285 2 23.4018C2 26.3192 3.19897 29.0982 5.37594 31.227C5.55344 31.4005 5.73609 31.5676 5.92391 31.7283L6.98581 28.5426C5.75853 27.1219 5 25.3141 5 23.4018C5 19.4304 8.34912 16.0879 12.6246 15.7923L13.9423 15.7012L14.0186 14.3826C14.176 11.7113 15.3474 9.20083 17.2935 7.36418C19.2397 5.52754 21.8136 4.50327 24.4896 4.50063C27.1655 4.498 29.7415 5.5172 31.6913 7.35002C33.641 9.18283 34.8174 11.6909 34.98 14.3619L35.0636 15.7577L36.4617 15.7722C40.8297 15.818 44 19.0267 44 23.4018C44 26.5098 42.4338 29.1562 40.0775 30.5174L38.8468 34.2094C40.8254 33.7288 42.6175 32.6733 43.9972 31.1758C45.9336 29.0943 47 26.3334 47 23.4018C47 17.86 43.143 13.5375 37.8313 12.8633Z"/>
    <path d="M12.3152 46.5H15.4828L21.4206 28.9815L18.5794 28.0185L12.3152 46.5ZM28.0652 46.5H31.2328L37.1706 28.9815L34.3294 28.0185L28.0652 46.5ZM27.6978 23.5343L21.667 42H24.823L30.5496 24.4656L27.6978 23.5343ZM12.5742 23.5343L6.54322 42H9.69922L15.4258 24.4656L12.5742 23.5343Z"/>
</symbol>
<symbol id="warning" viewBox="0 0 1200 1200">
    <path d="m1153.3 980.55-505.12-815.36c-14.914-23.789-46.121-30.863-69.695-15.809-6.3203 4.0273-11.668 9.4297-15.668 15.809l-505.12 815.36c-14.789 23.863-7.6094 55.305 16.043 70.23 8.3516 5.2656 18.055 7.957 27.902 7.7344h1010.2c27.887-0.78516 49.867-24.223 49.094-52.355-0.25-9.0742-2.8945-17.918-7.6719-25.609zm-546.54-63.312c-34.246 0-62.008-28.004-62.008-62.562 0-34.547 27.762-62.562 62.008-62.562 34.25 0 62.008 28.012 62.008 62.562 0 34.559-27.758 62.562-62.008 62.562zm0-196.04c-32.145 0-58.207-26.289-58.207-58.723v-176.16c0-32.438 26.062-58.727 58.207-58.727 32.148 0 58.207 26.289 58.207 58.727v176.16c0 32.438-26.059 58.723-58.207 58.723z"/>
</symbol>
</defs>
</svg>
