<svg width="49" height="48" viewBox="0 0 49 48" fill="none" xmlns="http://www.w3.org/2000/svg">
<path d="M37.8313 12.8633C37.3216 9.68573 35.6937 6.79474 33.241 4.71133C30.7883 2.62792 27.6721 1.48913 24.454 1.5002C21.2358 1.51127 18.1275 2.67148 15.6892 4.77172C13.2508 6.87195 11.6429 9.77408 11.1552 12.955C8.87902 13.3529 6.77607 14.4288 5.12169 16.0419C4.13511 16.9972 3.35044 18.1409 2.8142 19.4051C2.27797 20.6694 2.00109 22.0285 2 23.4018C2 26.3192 3.19897 29.0982 5.37594 31.227C5.55344 31.4005 5.73609 31.5676 5.92391 31.7283L6.98581 28.5426C5.75853 27.1219 5 25.3141 5 23.4018C5 19.4304 8.34912 16.0879 12.6246 15.7923L13.9423 15.7012L14.0186 14.3826C14.176 11.7113 15.3474 9.20083 17.2935 7.36418C19.2397 5.52754 21.8136 4.50327 24.4896 4.50063C27.1655 4.498 29.7415 5.5172 31.6913 7.35002C33.641 9.18283 34.8174 11.6909 34.98 14.3619L35.0636 15.7577L36.4617 15.7722C40.8297 15.818 44 19.0267 44 23.4018C44 26.5098 42.4338 29.1562 40.0775 30.5174L38.8468 34.2094C40.8254 33.7288 42.6175 32.6733 43.9972 31.1758C45.9336 29.0943 47 26.3334 47 23.4018C47 17.86 43.143 13.5375 37.8313 12.8633Z" fill="white"/>
<path d="M12.3152 46.5H15.4828L21.4206 28.9815L18.5794 28.0185L12.3152 46.5ZM28.0652 46.5H31.2328L37.1706 28.9815L34.3294 28.0185L28.0652 46.5ZM27.6978 23.5343L21.667 42H24.823L30.5496 24.4656L27.6978 23.5343ZM12.5742 23.5343L6.54322 42H9.69922L15.4258 24.4656L12.5742 23.5343Z" fill="white"/>
</svg>
