<?xml version="1.0" standalone="no"?>
<!DOCTYPE svg PUBLIC "-//W3C//DTD SVG 20010904//EN"
 "http://www.w3.org/TR/2001/REC-SVG-20010904/DTD/svg10.dtd">
<svg version="1.0" xmlns="http://www.w3.org/2000/svg"
 width="512.000000pt" height="512.000000pt" viewBox="0 0 512.000000 512.000000"
 preserveAspectRatio="xMidYMid meet">
<metadata>
Created by potrace 1.14, written by Peter Selinger 2001-2017
</metadata>
<g transform="translate(0.000000,512.000000) scale(0.100000,-0.100000)"
fill="#000000" stroke="none">
<path d="M2330 5089 c-80 -7 -156 -17 -180 -24 -8 -2 -35 -7 -60 -10 -179 -25
-468 -122 -674 -226 -158 -80 -398 -235 -475 -307 -10 -9 -61 -55 -113 -102
-224 -203 -443 -498 -565 -760 -17 -36 -42 -90 -56 -120 -49 -108 -138 -397
-153 -500 -2 -19 -9 -55 -14 -80 -5 -25 -12 -79 -15 -120 -4 -41 -9 -86 -11
-100 -6 -35 -5 -336 1 -390 3 -25 10 -85 15 -134 25 -213 103 -491 197 -700
64 -144 114 -234 209 -376 328 -495 806 -851 1379 -1029 126 -39 250 -65 430
-91 97 -15 444 -20 540 -9 105 11 168 20 185 24 8 2 35 7 60 10 25 4 95 19
155 35 1128 291 1914 1297 1918 2455 1 124 -9 311 -18 338 -2 6 -6 32 -9 57
-31 248 -122 526 -254 785 -59 115 -196 331 -250 397 -249 297 -451 473 -733
640 -182 108 -353 179 -626 261 -57 17 -222 50 -343 68 -90 13 -435 19 -540 8z"/>
</g>
</svg>
